<?xml version="1.0" encoding="utf-8"?>
<svg xmlns="http://www.w3.org/2000/svg" width="512" height="192" viewBox="0 0 512 192">
  <rect width="100%" height="100%" fill="#000"/>
  <g fill="#fff">
    <rect x="0" y="0" width="8" height="8" />
    <rect x="8" y="0" width="8" height="8" />
    <rect x="16" y="0" width="8" height="8" />
    <rect x="24" y="0" width="8" height="8" />
    <rect x="32" y="0" width="8" height="8" />
    <rect x="40" y="0" width="8" height="8" />
    <rect x="48" y="0" width="8" height="8" />
    <rect x="56" y="0" width="8" height="8" />
    <rect x="64" y="0" width="8" height="8" />
    <rect x="72" y="0" width="8" height="8" />
    <rect x="80" y="0" width="8" height="8" />
    <rect x="88" y="0" width="8" height="8" />
    <rect x="96" y="0" width="8" height="8" />
    <rect x="104" y="0" width="8" height="8" />
    <rect x="112" y="0" width="8" height="8" />
    <rect x="120" y="0" width="8" height="8" />
    <rect x="128" y="0" width="8" height="8" />
    <rect x="136" y="0" width="8" height="8" />
    <rect x="144" y="0" width="8" height="8" />
    <rect x="152" y="0" width="8" height="8" />
    <rect x="160" y="0" width="8" height="8" />
    <rect x="168" y="0" width="8" height="8" />
    <rect x="176" y="0" width="8" height="8" />
    <rect x="184" y="0" width="8" height="8" />
    <rect x="192" y="0" width="8" height="8" />
    <rect x="200" y="0" width="8" height="8" />
    <rect x="208" y="0" width="8" height="8" />
    <rect x="216" y="0" width="8" height="8" />
    <rect x="224" y="0" width="8" height="8" />
    <rect x="232" y="0" width="8" height="8" />
    <rect x="240" y="0" width="8" height="8" />
    <rect x="248" y="0" width="8" height="8" />
    <rect x="256" y="0" width="8" height="8" />
    <rect x="264" y="0" width="8" height="8" />
    <rect x="272" y="0" width="8" height="8" />
    <rect x="280" y="0" width="8" height="8" />
    <rect x="288" y="0" width="8" height="8" />
    <rect x="296" y="0" width="8" height="8" />
    <rect x="304" y="0" width="8" height="8" />
    <rect x="312" y="0" width="8" height="8" />
    <rect x="320" y="0" width="8" height="8" />
    <rect x="328" y="0" width="8" height="8" />
    <rect x="336" y="0" width="8" height="8" />
    <rect x="344" y="0" width="8" height="8" />
    <rect x="352" y="0" width="8" height="8" />
    <rect x="360" y="0" width="8" height="8" />
    <rect x="368" y="0" width="8" height="8" />
    <rect x="376" y="0" width="8" height="8" />
    <rect x="384" y="0" width="8" height="8" />
    <rect x="392" y="0" width="8" height="8" />
    <rect x="400" y="0" width="8" height="8" />
    <rect x="408" y="0" width="8" height="8" />
    <rect x="416" y="0" width="8" height="8" />
    <rect x="424" y="0" width="8" height="8" />
    <rect x="432" y="0" width="8" height="8" />
    <rect x="440" y="0" width="8" height="8" />
    <rect x="448" y="0" width="8" height="8" />
    <rect x="456" y="0" width="8" height="8" />
    <rect x="464" y="0" width="8" height="8" />
    <rect x="472" y="0" width="8" height="8" />
    <rect x="480" y="0" width="8" height="8" />
    <rect x="488" y="0" width="8" height="8" />
    <rect x="496" y="0" width="8" height="8" />
    <rect x="504" y="0" width="8" height="8" />
    <rect x="0" y="8" width="8" height="8" />
    <rect x="504" y="8" width="8" height="8" />
    <rect x="0" y="16" width="8" height="8" />
    <rect x="504" y="16" width="8" height="8" />
    <rect x="0" y="24" width="8" height="8" />
    <rect x="504" y="24" width="8" height="8" />
    <rect x="0" y="32" width="8" height="8" />
    <rect x="504" y="32" width="8" height="8" />
    <rect x="0" y="40" width="8" height="8" />
    <rect x="504" y="40" width="8" height="8" />
    <rect x="0" y="48" width="8" height="8" />
    <rect x="504" y="48" width="8" height="8" />
    <rect x="0" y="56" width="8" height="8" />
    <rect x="504" y="56" width="8" height="8" />
    <rect x="0" y="64" width="8" height="8" />
    <rect x="504" y="64" width="8" height="8" />
    <rect x="0" y="72" width="8" height="8" />
    <rect x="40" y="72" width="8" height="8" />
    <rect x="48" y="72" width="8" height="8" />
    <rect x="56" y="72" width="8" height="8" />
    <rect x="64" y="72" width="8" height="8" />
    <rect x="88" y="72" width="8" height="8" />
    <rect x="96" y="72" width="8" height="8" />
    <rect x="104" y="72" width="8" height="8" />
    <rect x="112" y="72" width="8" height="8" />
    <rect x="120" y="72" width="8" height="8" />
    <rect x="136" y="72" width="8" height="8" />
    <rect x="144" y="72" width="8" height="8" />
    <rect x="152" y="72" width="8" height="8" />
    <rect x="192" y="72" width="8" height="8" />
    <rect x="200" y="72" width="8" height="8" />
    <rect x="208" y="72" width="8" height="8" />
    <rect x="216" y="72" width="8" height="8" />
    <rect x="232" y="72" width="8" height="8" />
    <rect x="264" y="72" width="8" height="8" />
    <rect x="280" y="72" width="8" height="8" />
    <rect x="312" y="72" width="8" height="8" />
    <rect x="352" y="72" width="8" height="8" />
    <rect x="360" y="72" width="8" height="8" />
    <rect x="376" y="72" width="8" height="8" />
    <rect x="384" y="72" width="8" height="8" />
    <rect x="392" y="72" width="8" height="8" />
    <rect x="400" y="72" width="8" height="8" />
    <rect x="408" y="72" width="8" height="8" />
    <rect x="424" y="72" width="8" height="8" />
    <rect x="456" y="72" width="8" height="8" />
    <rect x="504" y="72" width="8" height="8" />
    <rect x="0" y="80" width="8" height="8" />
    <rect x="40" y="80" width="8" height="8" />
    <rect x="72" y="80" width="8" height="8" />
    <rect x="88" y="80" width="8" height="8" />
    <rect x="136" y="80" width="8" height="8" />
    <rect x="160" y="80" width="8" height="8" />
    <rect x="184" y="80" width="8" height="8" />
    <rect x="232" y="80" width="8" height="8" />
    <rect x="264" y="80" width="8" height="8" />
    <rect x="280" y="80" width="8" height="8" />
    <rect x="288" y="80" width="8" height="8" />
    <rect x="312" y="80" width="8" height="8" />
    <rect x="360" y="80" width="8" height="8" />
    <rect x="392" y="80" width="8" height="8" />
    <rect x="424" y="80" width="8" height="8" />
    <rect x="432" y="80" width="8" height="8" />
    <rect x="456" y="80" width="8" height="8" />
    <rect x="504" y="80" width="8" height="8" />
    <rect x="0" y="88" width="8" height="8" />
    <rect x="40" y="88" width="8" height="8" />
    <rect x="48" y="88" width="8" height="8" />
    <rect x="56" y="88" width="8" height="8" />
    <rect x="64" y="88" width="8" height="8" />
    <rect x="88" y="88" width="8" height="8" />
    <rect x="96" y="88" width="8" height="8" />
    <rect x="104" y="88" width="8" height="8" />
    <rect x="112" y="88" width="8" height="8" />
    <rect x="136" y="88" width="8" height="8" />
    <rect x="168" y="88" width="8" height="8" />
    <rect x="192" y="88" width="8" height="8" />
    <rect x="200" y="88" width="8" height="8" />
    <rect x="208" y="88" width="8" height="8" />
    <rect x="232" y="88" width="8" height="8" />
    <rect x="264" y="88" width="8" height="8" />
    <rect x="280" y="88" width="8" height="8" />
    <rect x="296" y="88" width="8" height="8" />
    <rect x="312" y="88" width="8" height="8" />
    <rect x="360" y="88" width="8" height="8" />
    <rect x="392" y="88" width="8" height="8" />
    <rect x="424" y="88" width="8" height="8" />
    <rect x="440" y="88" width="8" height="8" />
    <rect x="456" y="88" width="8" height="8" />
    <rect x="504" y="88" width="8" height="8" />
    <rect x="0" y="96" width="8" height="8" />
    <rect x="40" y="96" width="8" height="8" />
    <rect x="56" y="96" width="8" height="8" />
    <rect x="88" y="96" width="8" height="8" />
    <rect x="136" y="96" width="8" height="8" />
    <rect x="160" y="96" width="8" height="8" />
    <rect x="216" y="96" width="8" height="8" />
    <rect x="232" y="96" width="8" height="8" />
    <rect x="264" y="96" width="8" height="8" />
    <rect x="280" y="96" width="8" height="8" />
    <rect x="304" y="96" width="8" height="8" />
    <rect x="312" y="96" width="8" height="8" />
    <rect x="328" y="96" width="8" height="8" />
    <rect x="360" y="96" width="8" height="8" />
    <rect x="392" y="96" width="8" height="8" />
    <rect x="424" y="96" width="8" height="8" />
    <rect x="448" y="96" width="8" height="8" />
    <rect x="456" y="96" width="8" height="8" />
    <rect x="504" y="96" width="8" height="8" />
    <rect x="0" y="104" width="8" height="8" />
    <rect x="40" y="104" width="8" height="8" />
    <rect x="64" y="104" width="8" height="8" />
    <rect x="72" y="104" width="8" height="8" />
    <rect x="88" y="104" width="8" height="8" />
    <rect x="96" y="104" width="8" height="8" />
    <rect x="104" y="104" width="8" height="8" />
    <rect x="112" y="104" width="8" height="8" />
    <rect x="120" y="104" width="8" height="8" />
    <rect x="136" y="104" width="8" height="8" />
    <rect x="144" y="104" width="8" height="8" />
    <rect x="152" y="104" width="8" height="8" />
    <rect x="184" y="104" width="8" height="8" />
    <rect x="192" y="104" width="8" height="8" />
    <rect x="200" y="104" width="8" height="8" />
    <rect x="208" y="104" width="8" height="8" />
    <rect x="240" y="104" width="8" height="8" />
    <rect x="248" y="104" width="8" height="8" />
    <rect x="256" y="104" width="8" height="8" />
    <rect x="280" y="104" width="8" height="8" />
    <rect x="312" y="104" width="8" height="8" />
    <rect x="336" y="104" width="8" height="8" />
    <rect x="344" y="104" width="8" height="8" />
    <rect x="352" y="104" width="8" height="8" />
    <rect x="376" y="104" width="8" height="8" />
    <rect x="384" y="104" width="8" height="8" />
    <rect x="392" y="104" width="8" height="8" />
    <rect x="400" y="104" width="8" height="8" />
    <rect x="408" y="104" width="8" height="8" />
    <rect x="424" y="104" width="8" height="8" />
    <rect x="456" y="104" width="8" height="8" />
    <rect x="504" y="104" width="8" height="8" />
    <rect x="0" y="112" width="8" height="8" />
    <rect x="504" y="112" width="8" height="8" />
    <rect x="0" y="120" width="8" height="8" />
    <rect x="504" y="120" width="8" height="8" />
    <rect x="0" y="128" width="8" height="8" />
    <rect x="504" y="128" width="8" height="8" />
    <rect x="0" y="136" width="8" height="8" />
    <rect x="504" y="136" width="8" height="8" />
    <rect x="0" y="144" width="8" height="8" />
    <rect x="504" y="144" width="8" height="8" />
    <rect x="0" y="152" width="8" height="8" />
    <rect x="504" y="152" width="8" height="8" />
    <rect x="0" y="160" width="8" height="8" />
    <rect x="504" y="160" width="8" height="8" />
    <rect x="0" y="168" width="8" height="8" />
    <rect x="504" y="168" width="8" height="8" />
    <rect x="0" y="176" width="8" height="8" />
    <rect x="504" y="176" width="8" height="8" />
    <rect x="0" y="184" width="8" height="8" />
    <rect x="8" y="184" width="8" height="8" />
    <rect x="16" y="184" width="8" height="8" />
    <rect x="24" y="184" width="8" height="8" />
    <rect x="32" y="184" width="8" height="8" />
    <rect x="40" y="184" width="8" height="8" />
    <rect x="48" y="184" width="8" height="8" />
    <rect x="56" y="184" width="8" height="8" />
    <rect x="64" y="184" width="8" height="8" />
    <rect x="72" y="184" width="8" height="8" />
    <rect x="80" y="184" width="8" height="8" />
    <rect x="88" y="184" width="8" height="8" />
    <rect x="96" y="184" width="8" height="8" />
    <rect x="104" y="184" width="8" height="8" />
    <rect x="112" y="184" width="8" height="8" />
    <rect x="120" y="184" width="8" height="8" />
    <rect x="128" y="184" width="8" height="8" />
    <rect x="136" y="184" width="8" height="8" />
    <rect x="144" y="184" width="8" height="8" />
    <rect x="152" y="184" width="8" height="8" />
    <rect x="160" y="184" width="8" height="8" />
    <rect x="168" y="184" width="8" height="8" />
    <rect x="176" y="184" width="8" height="8" />
    <rect x="184" y="184" width="8" height="8" />
    <rect x="192" y="184" width="8" height="8" />
    <rect x="200" y="184" width="8" height="8" />
    <rect x="208" y="184" width="8" height="8" />
    <rect x="216" y="184" width="8" height="8" />
    <rect x="224" y="184" width="8" height="8" />
    <rect x="232" y="184" width="8" height="8" />
    <rect x="240" y="184" width="8" height="8" />
    <rect x="248" y="184" width="8" height="8" />
    <rect x="256" y="184" width="8" height="8" />
    <rect x="264" y="184" width="8" height="8" />
    <rect x="272" y="184" width="8" height="8" />
    <rect x="280" y="184" width="8" height="8" />
    <rect x="288" y="184" width="8" height="8" />
    <rect x="296" y="184" width="8" height="8" />
    <rect x="304" y="184" width="8" height="8" />
    <rect x="312" y="184" width="8" height="8" />
    <rect x="320" y="184" width="8" height="8" />
    <rect x="328" y="184" width="8" height="8" />
    <rect x="336" y="184" width="8" height="8" />
    <rect x="344" y="184" width="8" height="8" />
    <rect x="352" y="184" width="8" height="8" />
    <rect x="360" y="184" width="8" height="8" />
    <rect x="368" y="184" width="8" height="8" />
    <rect x="376" y="184" width="8" height="8" />
    <rect x="384" y="184" width="8" height="8" />
    <rect x="392" y="184" width="8" height="8" />
    <rect x="400" y="184" width="8" height="8" />
    <rect x="408" y="184" width="8" height="8" />
    <rect x="416" y="184" width="8" height="8" />
    <rect x="424" y="184" width="8" height="8" />
    <rect x="432" y="184" width="8" height="8" />
    <rect x="440" y="184" width="8" height="8" />
    <rect x="448" y="184" width="8" height="8" />
    <rect x="456" y="184" width="8" height="8" />
    <rect x="464" y="184" width="8" height="8" />
    <rect x="472" y="184" width="8" height="8" />
    <rect x="480" y="184" width="8" height="8" />
    <rect x="488" y="184" width="8" height="8" />
    <rect x="496" y="184" width="8" height="8" />
    <rect x="504" y="184" width="8" height="8" />
  </g>
</svg>
